<svg xmlns="http://www.w3.org/2000/svg" xmlns:xlink="http://www.w3.org/1999/xlink" width="100" height="100" viewBox="0 0 100 100"><circle stroke="none" fill="#fab131" r="48%" cx="50%" cy="50%"></circle><g transform="translate(50 50) scale(0.69 0.69) rotate(0) translate(-50 -50)" style="fill:#ffffff"><svg fill="#ffffff" xmlns="http://www.w3.org/2000/svg" xmlns:xlink="http://www.w3.org/1999/xlink" version="1.1" x="0px" y="0px" viewBox="0 0 100 100" enable-background="new 0 0 100 100" xml:space="preserve"><path fill="#ffffff" d="M81,47H53V19c0-1.1-0.9-2-2-2h-2c-1.1,0-2,0.9-2,2v28H19c-1.1,0-2,0.9-2,2v2c0,1.1,0.9,2,2,2h28v28  c0,1.1,0.9,2,2,2h2c1.1,0,2-0.9,2-2V53h28c1.1,0,2-0.9,2-2v-2C83,47.9,82.1,47,81,47z"></path></svg></g></svg>