<svg height='100px' width='100px'  fill="#909090" xmlns="http://www.w3.org/2000/svg" xmlns:xlink="http://www.w3.org/1999/xlink" version="1.1" x="0px" y="0px" viewBox="0 0 100 100" enable-background="new 0 0 100 100" xml:space="preserve"><path fill-rule="evenodd" clip-rule="evenodd" d="M35.726,27.414L56.801,50L35.726,72.586c-1.415,1.451-1.441,3.776-0.027,5.227  c1.414,1.451,3.681,1.424,5.095-0.027l23.452-25.135c0.017-0.017,0.038-0.028,0.055-0.046c0.679-0.696,1.016-1.594,1.037-2.5  c0.001-0.036,0.009-0.071,0.009-0.106c0-0.035-0.008-0.071-0.009-0.106c-0.021-0.906-0.359-1.804-1.037-2.5  c-0.017-0.017-0.037-0.029-0.055-0.046L40.795,22.214c-1.414-1.451-3.681-1.478-5.095-0.027  C34.285,23.638,34.312,25.963,35.726,27.414z"></path></svg>