<svg xmlns="http://www.w3.org/2000/svg" xmlns:xlink="http://www.w3.org/1999/xlink" width="100" height="100" viewBox="0 0 100 100"><circle stroke="none" fill="#fab131" r="48%" cx="50%" cy="50%"></circle><g transform="translate(50 50) scale(0.69 0.69) rotate(0) translate(-50 -50)" style="fill:#ffffff"><svg fill="#ffffff" xmlns="http://www.w3.org/2000/svg" xmlns:xlink="http://www.w3.org/1999/xlink" version="1.1" x="0px" y="0px" viewBox="0 0 100 100" style="enable-background:new 0 0 100 100;" xml:space="preserve"><g><path d="M62.4,59.8C66.5,55.3,69,49.5,69,43c0-13.8-11.1-25-24.8-25S19.4,29.2,19.4,42.8s11.2,24.8,24.8,24.8   c5.2,0,10.1-1.7,13.9-4.3l17.8,17.8c0.6,0.6,1.2,0.8,1.9,0.8c0.7,0,1.4-0.3,1.9-0.8c1.1-1.1,1.1-2.8,0-3.9L62.4,59.8z M44.3,62.1   C33.7,62.1,25,53.4,25,42.8s8.7-19.3,19.3-19.3s19.3,8.7,19.3,19.3S55,62.1,44.3,62.1z"></path></g></svg></g></svg>