<svg xmlns="http://www.w3.org/2000/svg" xmlns:xlink="http://www.w3.org/1999/xlink" width="100" height="100" viewBox="0 0 100 100"><circle stroke="none" fill="#a2a2a2" r="48%" cx="50%" cy="50%"></circle><g transform="translate(50 50) scale(0.69 0.69) rotate(0) translate(-50 -50)" style="fill:#ffffff"><svg fill="#ffffff" xmlns="http://www.w3.org/2000/svg" data-name="Layer 1" viewBox="0 0 32 32" x="0px" y="0px"><title>user</title><path d="M27.93,26.79a12.81,12.81,0,0,0-23.86,0,1,1,0,1,0,1.86.73,10.81,10.81,0,0,1,20.14,0,1,1,0,0,0,.93.64.92.92,0,0,0,.36-.07A1,1,0,0,0,27.93,26.79ZM16,16.64a6.4,6.4,0,1,0-6.4-6.4A6.41,6.41,0,0,0,16,16.64Zm0-10.8a4.4,4.4,0,1,1-4.4,4.4A4.41,4.41,0,0,1,16,5.84Z"></path></svg></g></svg>