<svg xmlns="http://www.w3.org/2000/svg" xmlns:xlink="http://www.w3.org/1999/xlink" width="100" height="100" viewBox="0 0 100 100"><svg viewBox="0 0 99.999997 99.999997"><g transform="translate(-149.6453,-589.21878)"><path d="m 199.64552,591.21879 a 48.000099,48.000099 0 0 0 -48.00022,48.00022 48.000099,48.000099 0 0 0 48.00022,47.99977 48.000099,48.000099 0 0 0 47.99977,-47.99977 48.000099,48.000099 0 0 0 -47.99977,-48.00022 z m 0,5.42088 a 42.107528,42.578935 0 0 1 42.10718,42.57934 42.107528,42.578935 0 0 1 -42.10718,42.57887 42.107528,42.578935 0 0 1 -42.10763,-42.57887 42.107528,42.578935 0 0 1 42.10763,-42.57934 z" fill="#76b3b4"></path></g></svg><g transform="translate(50 50) scale(0.69 0.69) rotate(0) translate(-50 -50)" style="fill:#76b3b4"><svg fill="#76b3b4" xmlns="http://www.w3.org/2000/svg" xmlns:xlink="http://www.w3.org/1999/xlink" version="1.1" x="0px" y="0px" viewBox="0 0 100 100" style="enable-background:new 0 0 100 100;" xml:space="preserve"><g><path d="M49.9,84.7c-9.3,0-18-3.6-24.5-10.1L0.9,50l24.5-24.5C32,19,40.7,15.4,49.9,15.4c9.3,0,18,3.6,24.5,10.1L98.9,50L74.4,74.5   C67.9,81.1,59.2,84.7,49.9,84.7z M7.4,50l21.3,21.3c5.7,5.7,13.2,8.8,21.3,8.8c8,0,15.6-3.1,21.3-8.8L92.5,50L71.2,28.8   C65.5,23.1,58,20,49.9,20c-8,0-15.6,3.1-21.3,8.8L7.4,50z"></path><path d="M49.9,38.4c6.4,0,11.6,5.2,11.6,11.6c0,6.4-5.2,11.6-11.6,11.6S38.3,56.4,38.3,50C38.3,43.6,43.5,38.4,49.9,38.4    M49.9,33.8c-8.9,0-16.2,7.2-16.2,16.2S41,66.2,49.9,66.2c8.9,0,16.2-7.2,16.2-16.2S58.9,33.8,49.9,33.8L49.9,33.8z"></path></g></svg></g></svg>