<svg xmlns="http://www.w3.org/2000/svg" xmlns:xlink="http://www.w3.org/1999/xlink" width="100" height="100" viewBox="0 0 100 100"><svg viewBox="0 0 99.999997 99.999997"><g transform="translate(-149.6453,-589.21878)"><path d="m 199.64552,591.21879 a 48.000099,48.000099 0 0 0 -48.00022,48.00022 48.000099,48.000099 0 0 0 48.00022,47.99977 48.000099,48.000099 0 0 0 47.99977,-47.99977 48.000099,48.000099 0 0 0 -47.99977,-48.00022 z m 0,5.42088 a 42.107528,42.578935 0 0 1 42.10718,42.57934 42.107528,42.578935 0 0 1 -42.10718,42.57887 42.107528,42.578935 0 0 1 -42.10763,-42.57887 42.107528,42.578935 0 0 1 42.10763,-42.57934 z" fill="#b5d4cc"></path></g></svg><g transform="translate(50 50) scale(0.69 0.69) rotate(0) translate(-50 -50)" style="fill:#b5d4cc"><svg fill="#b5d4cc" xmlns="http://www.w3.org/2000/svg" viewBox="0 0 25 25" x="0px" y="0px"><title>Eye</title><g><path d="M2.08,12.23v.54C2.27,13.06,6.77,20,12.5,20s10.23-6.94,10.42-7.23v-.54C22.73,11.94,18.23,5,12.5,5S2.27,11.94,2.08,12.23ZM12.5,6c4.58,0,8.52,5.24,9.4,6.5C21,13.76,17.09,19,12.5,19S4,13.76,3.1,12.5C4,11.24,7.91,6,12.5,6Z"></path><path d="M12.5,16A3.5,3.5,0,1,0,9,12.5,3.5,3.5,0,0,0,12.5,16Zm0-6A2.5,2.5,0,1,1,10,12.5,2.5,2.5,0,0,1,12.5,10Z"></path></g></svg></g></svg>